<svg width="17" height="28" viewBox="0 0 17 28" fill="none" xmlns="http://www.w3.org/2000/svg">
<g id="Group">
<path id="Vector" d="M13.5744 0.985718H3.40052C2.15187 0.985718 1.13965 1.99794 1.13965 3.24659V24.7248C1.13965 25.9735 2.15187 26.9857 3.40052 26.9857H13.5744C14.8231 26.9857 15.8353 25.9735 15.8353 24.7248V3.24659C15.8353 1.99794 14.8231 0.985718 13.5744 0.985718Z" stroke="#A0A3BD" stroke-width="1.6" stroke-linecap="round" stroke-linejoin="round"/>
<path id="Vector_2" d="M12.1906 0.985718V2.46695C12.1906 2.85979 12.0345 3.23655 11.7567 3.51433C11.4789 3.79212 11.1022 3.94818 10.7093 3.94818H6.26565C5.87281 3.94818 5.49605 3.79212 5.21827 3.51433C4.94048 3.23655 4.78442 2.85979 4.78442 2.46695V0.985718" stroke="#A0A3BD" stroke-width="1.6" stroke-linecap="round" stroke-linejoin="round"/>
</g>
</svg>
