<svg width="258" height="41" viewBox="0 0 258 41" fill="none" xmlns="http://www.w3.org/2000/svg">
<g id="Group 4142">
<g id="surface1">
<path id="Vector" d="M23.4986 3.08007L23.4982 3.07931C22.9462 1.96304 21.8182 1.51776 20.8766 1.51776C19.9346 1.51776 18.8093 1.96264 18.2537 3.0731L18.2537 3.07309L18.2499 3.08071L13.8554 11.9907L4.02516 13.419L4.02487 13.419C2.93506 13.5776 2.00696 14.3391 1.6601 15.4104L1.65936 15.4127C1.32107 16.4634 1.59701 17.6315 2.40602 18.4108L9.51764 25.3445L7.83828 35.133L7.83707 35.1403C7.65669 36.2241 8.09398 37.3426 9.00741 38.002C9.90018 38.6465 11.092 38.7466 12.0864 38.2167C12.0885 38.2155 12.0907 38.2144 12.0929 38.2132L20.8774 33.5992L29.6638 38.2174C29.6646 38.2178 29.6654 38.2183 29.6662 38.2187C30.112 38.4537 30.5836 38.5531 31.0331 38.5531C31.6349 38.5531 32.2301 38.3701 32.7392 38.0077L32.7478 38.0016L32.7563 37.9954C33.6561 37.3353 34.0989 36.2305 33.9175 35.1403L33.9162 35.133L32.2369 25.3445L39.3511 18.4082C40.1574 17.6239 40.4274 16.4646 40.0906 15.4161C39.7517 14.3476 38.8221 13.5778 37.7294 13.419L37.5162 14.8858L37.7294 13.419L27.8987 11.9906L23.4986 3.08007Z" fill="#FFD029" stroke="white" stroke-width="2.96448"/>
</g>
<g id="surface1_2">
<path id="Vector_2" d="M77.5194 3.08007L77.5191 3.07931C76.967 1.96304 75.8391 1.51776 74.8974 1.51776C73.9555 1.51776 72.8302 1.96264 72.2746 3.0731L72.2746 3.07309L72.2708 3.08071L67.8763 11.9907L58.046 13.419L58.0457 13.419C56.9559 13.5776 56.0278 14.3391 55.681 15.4104L55.6802 15.4127C55.3419 16.4634 55.6179 17.6315 56.4269 18.4108L63.5385 25.3445L61.8592 35.133L61.8579 35.1403C61.6776 36.2241 62.1149 37.3426 63.0283 38.002C63.921 38.6465 65.1129 38.7466 66.1072 38.2167C66.1094 38.2155 66.1116 38.2144 66.1138 38.2132L74.8983 33.5992L83.6847 38.2174C83.6855 38.2178 83.6863 38.2183 83.6871 38.2187C84.1328 38.4537 84.6044 38.5531 85.054 38.5531C85.6558 38.5531 86.2509 38.3701 86.76 38.0077L86.7686 38.0016L86.7772 37.9954C87.677 37.3353 88.1198 36.2305 87.9384 35.1403L87.9371 35.133L86.2578 25.3445L93.372 18.4082C94.1783 17.6239 94.4483 16.4646 94.1114 15.4161C93.7726 14.3476 92.843 13.5778 91.7503 13.419L91.5371 14.8858L91.7502 13.419L81.9196 11.9906L77.5194 3.08007Z" fill="#FFD029" stroke="white" stroke-width="2.96448"/>
</g>
<g id="surface1_3">
<path id="Vector_3" d="M131.541 3.08007L131.541 3.07931C130.989 1.96304 129.861 1.51776 128.919 1.51776C127.977 1.51776 126.852 1.96264 126.296 3.0731L126.296 3.07309L126.292 3.08071L121.898 11.9907L112.068 13.419L112.067 13.419C110.977 13.5776 110.049 14.3391 109.702 15.4104L109.702 15.4127C109.363 16.4634 109.639 17.6315 110.448 18.4108L117.56 25.3445L115.881 35.133L115.879 35.1403C115.699 36.2241 116.136 37.3426 117.05 38.002C117.943 38.6465 119.134 38.7466 120.129 38.2167C120.131 38.2155 120.133 38.2144 120.135 38.2132L128.92 33.5992L137.706 38.2174C137.707 38.2178 137.708 38.2183 137.709 38.2187C138.154 38.4537 138.626 38.5531 139.075 38.5531C139.677 38.5531 140.272 38.3701 140.782 38.0077L140.79 38.0016L140.799 37.9954C141.699 37.3353 142.141 36.2305 141.96 35.1403L141.959 35.133L140.279 25.3445L147.394 18.4082C148.2 17.6239 148.47 16.4646 148.133 15.4161C147.794 14.3476 146.864 13.5778 145.772 13.419L145.559 14.8858L145.772 13.419L135.941 11.9906L131.541 3.08007Z" fill="#FFD029" stroke="white" stroke-width="2.96448"/>
</g>
<g id="surface1_4">
<path id="Vector_4" d="M185.562 3.08007L185.561 3.07931C185.009 1.96304 183.881 1.51776 182.94 1.51776C181.998 1.51776 180.873 1.96264 180.317 3.0731L180.317 3.07309L180.313 3.08071L175.919 11.9907L166.088 13.419L166.088 13.419C164.998 13.5776 164.07 14.3391 163.723 15.4104L163.723 15.4127C163.384 16.4634 163.66 17.6315 164.469 18.4108L171.581 25.3445L169.902 35.133L169.9 35.1403C169.72 36.2241 170.157 37.3426 171.071 38.002C171.963 38.6465 173.155 38.7466 174.15 38.2167C174.152 38.2155 174.154 38.2144 174.156 38.2132L182.941 33.5992L191.727 38.2174C191.728 38.2178 191.729 38.2183 191.729 38.2187C192.175 38.4537 192.647 38.5531 193.096 38.5531C193.698 38.5531 194.293 38.3701 194.802 38.0077L194.811 38.0016L194.82 37.9954C195.719 37.3353 196.162 36.2305 195.981 35.1403L195.979 35.133L194.3 25.3445L201.414 18.4082C202.221 17.6239 202.491 16.4646 202.154 15.4161C201.815 14.3476 200.885 13.5778 199.793 13.419L199.58 14.8858L199.793 13.419L189.962 11.9906L185.562 3.08007Z" fill="#EFF0F7" stroke="white" stroke-width="2.96448"/>
</g>
<g id="surface1_5">
<path id="Vector_5" d="M239.583 3.08007L239.583 3.07931C239.031 1.96304 237.903 1.51776 236.961 1.51776C236.019 1.51776 234.894 1.96264 234.338 3.0731L234.338 3.07309L234.335 3.08071L229.94 11.9907L220.11 13.419L220.11 13.419C219.02 13.5776 218.092 14.3391 217.745 15.4104L217.744 15.4127C217.406 16.4634 217.682 17.6315 218.491 18.4108L225.602 25.3445L223.923 35.133L223.922 35.1403C223.741 36.2241 224.179 37.3426 225.092 38.002C225.985 38.6465 227.177 38.7466 228.171 38.2167C228.173 38.2155 228.175 38.2144 228.178 38.2132L236.962 33.5992L245.749 38.2174C245.749 38.2178 245.75 38.2183 245.751 38.2187C246.197 38.4537 246.668 38.5531 247.118 38.5531C247.72 38.5531 248.315 38.3701 248.824 38.0077L248.833 38.0016L248.841 37.9954C249.741 37.3353 250.184 36.2305 250.002 35.1403L250.001 35.133L248.322 25.3445L255.436 18.4082C256.242 17.6239 256.512 16.4646 256.175 15.4161C255.836 14.3476 254.907 13.5778 253.814 13.419L253.601 14.8858L253.814 13.419L243.983 11.9906L239.583 3.08007Z" fill="#EFF0F7" stroke="white" stroke-width="2.96448"/>
</g>
</g>
</svg>
